#!OML:ASF H:\Pregnant\Project 1\Capture day 1\Session 1\femalepreg.ASF
:FULLY-SPECIFIED
:DEGREES
695
root 7.82387 15.3497 21.1927 94.6154 -434.75 -367.557
lowerback 25.8614 5.53932 -4.48635
upperback 6.30723 6.06002 6.51151
thorax -8.48631 2.80648 7.92445
lowerneck -41.672 4.46431 2.20984
upperneck -3.2773 4.32059 -7.2262
head 4.90563 0.910946 -2.28193
rclavicle 1.27222e-014 4.92986e-014
rhumerus 72.3205 -0.225026 -38.8027
rradius 25.4453
rwrist 9.54373
rhand -44.1809 -26.8515
rfingers 7.12502
rthumb -16.9953 -56.128
lclavicle 1.27222e-014 4.92986e-014
lhumerus 72.9422 -4.36314 53.781
lradius 24.7568
lwrist 19.4289
lhand -52.5226 -32.2956
lfingers 7.12502
lthumb -25.0084 -3.91258
rfemur -100.794 -7.39278 -27.0392
rtibia 23.086
rfoot -11.0276 -42.6436
rtoes 11.8126
lfemur -88.663 8.06922 -7.91247
ltibia 2.04748e-014
lfoot 8.35753 12.9008
ltoes -18.8403
696
root 7.81427 15.3482 21.1908 94.7648 -434.725 -367.612
lowerback 25.8674 5.54542 -4.54292
upperback 6.32708 6.0528 6.52189
thorax -8.47224 2.8033 7.97253
lowerneck -41.4465 4.42745 2.15209
upperneck -3.36348 4.30271 -7.16534
head 4.85061 0.91839 -2.25296
rclavicle 1.36764e-013 1.39348e-013
rhumerus 72.4114 -0.288604 -38.7457
rradius 25.5823
rwrist 9.32837
rhand -44.3143 -27.1357
rfingers 7.12502
rthumb -17.1237 -56.4011
lclavicle 1.36764e-013 1.39348e-013
lhumerus 72.9572 -4.24588 53.5794
lradius 24.9698
lwrist 19.8235
lhand -52.6418 -32.556
lfingers 7.12502
lthumb -25.1226 -4.1889
rfemur -100.861 -7.40781 -26.9535
rtibia 23.0743
rfoot -10.9979 -42.601
rtoes 11.7515
lfemur -88.7297 8.12462 -7.91473
ltibia 3.57812e-015
lfoot 8.30273 12.8942
ltoes -18.8054
697
root 7.80553 15.3469 21.1893 94.8204 -434.695 -367.584
lowerback 25.8876 5.53628 -4.57708
upperback 6.35264 6.03117 6.53719
thorax -8.45467 2.79243 8.01789
lowerneck -41.2043 4.38033 2.06167
upperneck -3.45356 4.28638 -7.08711
head 4.7914 0.929326 -2.21269
rclavicle 9.54166e-015 -1.78906e-015
rhumerus 72.5514 -0.34235 -38.6797
rradius 25.6864
rwrist 9.09886
rhand -44.4425 -27.3723
rfingers 7.12502
rthumb -17.2471 -56.6269
lclavicle 9.54166e-015 -1.78906e-015
lhumerus 72.9712 -4.10518 53.4433
lradius 25.1789
lwrist 20.1974
lhand -52.7291 -32.7774
lfingers 7.12502
lthumb -25.2062 -4.42203
rfemur -100.91 -7.43033 -26.8652
rtibia 23.0801
rfoot -10.9847 -42.5521
rtoes 11.6906
lfemur -88.7901 8.15279 -7.9102
ltibia 4.37326e-015
lfoot 8.25222 12.8865
ltoes -18.7699
698
root 7.79763 15.346 21.1878 94.8093 -434.662 -367.503
lowerback 25.9189 5.51863 -4.59472
upperback 6.38255 6.00239 6.55735
thorax -8.43533 2.77748 8.06143
lowerneck -40.9443 4.32522 1.94719
upperneck -3.54651 4.27115 -7.00144
head 4.72881 0.942495 -2.16598
rclavicle -2.62396e-014 -2.70347e-014
rhumerus 72.7188 -0.387086 -38.5999
rradius 25.7637
rwrist 8.86673
rhand -44.5601 -27.6034
rfingers 7.12502
rthumb -17.3603 -56.8481
lclavicle -2.62396e-014 -2.70347e-014
lhumerus 72.9847 -3.95193 53.3576
lradius 25.3776
lwrist 20.5352
lhand -52.7896 -32.9314
lfingers 7.12502
lthumb -25.2642 -4.5842
rfemur -100.944 -7.4525 -26.7741
rtibia 23.0963
rfoot -10.9777 -42.5001
rtoes 11.6218
lfemur -88.8409 8.16327 -7.89885
ltibia 1.2921e-014
lfoot 8.20326 12.8808
ltoes -18.7195
699
root 7.79044 15.3455 21.186 94.7807 -434.623 -367.419
lowerback 25.9566 5.49974 -4.60424
upperback 6.41696 5.97341 6.57956
thorax -8.41358 2.76183 8.10251
lowerneck -40.6737 4.26978 1.82337
upperneck -3.63919 4.2604 -6.91619
head 4.66533 0.95841 -2.1174
rclavicle 9.62118e-014 6.02318e-014
rhumerus 72.8997 -0.429508 -38.5189
rradius 25.8176
rwrist 8.65895
rhand -44.6538 -27.8117
rfingers 7.12502
rthumb -17.4505 -57.0484
lclavicle 9.62118e-014 6.02318e-014
lhumerus 73.0018 -3.79419 53.3127
lradius 25.5569
lwrist 20.8178
lhand -52.8295 -33.0094
lfingers 7.12502
lthumb -25.3024 -4.66757
rfemur -100.969 -7.46368 -26.6785
rtibia 23.1141
rfoot -10.9647 -42.4489
rtoes 11.5381
lfemur -88.8792 8.17144 -7.87988
ltibia 1.59028e-014
lfoot 8.15588 12.8778
ltoes -18.6588
700
root 7.78403 15.3455 21.1839 94.7462 -434.579 -367.344
lowerback 25.9973 5.48048 -4.60664
upperback 6.45578 5.94491 6.60028
thorax -8.38748 2.74579 8.13745
lowerneck -40.3993 4.22315 1.71278
upperneck -3.73305 4.25558 -6.8434
head 4.60203 0.976064 -2.07444
rclavicle 7.63333e-014 4.37326e-014
rhumerus 73.0813 -0.476138 -38.4378
rradius 25.8625
rwrist 8.48257
rhand -44.7034 -27.9429
rfingers 7.12502
rthumb -17.4982 -57.1754
lclavicle 7.63333e-014 4.37326e-014
lhumerus 73.0251 -3.63629 53.2821
lradius 25.7183
lwrist 21.0545
lhand -52.8785 -32.9993
lfingers 7.12502
lthumb -25.3494 -4.66419
rfemur -100.985 -7.46455 -26.5786
rtibia 23.1245
rfoot -10.9377 -42.3994
rtoes 11.4308
lfemur -88.9069 8.18044 -7.85417
ltibia 7.95139e-015
lfoot 8.10813 12.8786
ltoes -18.5824
701
root 7.77842 15.3456 21.1813 94.7329 -434.53 -367.301
lowerback 26.0357 5.46412 -4.60664
upperback 6.49751 5.91987 6.61548
thorax -8.3567 2.73091 8.16343
lowerneck -40.1216 4.19313 1.62922
upperneck -3.82897 4.26129 -6.79148
head 4.53945 0.99686 -2.04145
rclavicle -1.17681e-013 -4.21423e-014
rhumerus 73.2446 -0.526165 -38.3426
rradius 25.9113
rwrist 8.30272
rhand -44.7258 -27.9907
rfingers 7.12502
rthumb -17.5197 -57.2213
lclavicle -1.17681e-013 -4.21423e-014
lhumerus 73.0568 -3.48417 53.2586
lradius 25.8566
lwrist 21.2382
lhand -52.9294 -32.9211
lfingers 7.12502
lthumb -25.3982 -4.59289
rfemur -100.997 -7.45211 -26.475
rtibia 23.1226
rfoot -10.8981 -42.3502
rtoes 11.3242
lfemur -88.9245 8.19819 -7.82323
ltibia -1.41137e-014
lfoot 8.06277 12.8796
ltoes -18.5163
702
root 7.77362 15.346 21.1784 94.7599 -434.478 -367.305
lowerback 26.0633 5.44686 -4.60638
upperback 6.54681 5.89221 6.61794
thorax -8.31 2.7139 8.1758
lowerneck -39.8563 4.19525 1.59194
upperneck -3.93019 4.28882 -6.76914
head 4.4791 1.02486 -2.02288
rclavicle -1.44715e-013 -1.37758e-013
rhumerus 73.4001 -0.586265 -38.2427
rradius 25.9644
rwrist 8.09941
rhand -44.7542 -28.0615
rfingers 7.12502
rthumb -17.5471 -57.2897
lclavicle -1.44715e-013 -1.37758e-013
lhumerus 73.097 -3.32544 53.205
lradius 25.983
lwrist 21.3939
lhand -52.9668 -32.7856
lfingers 7.12502
lthumb -25.434 -4.46242
rfemur -101.011 -7.42792 -26.3685
rtibia 23.1085
rfoot -10.8484 -42.303
rtoes 11.2236
lfemur -88.9373 8.22984 -7.78943
ltibia 1.21259e-014
lfoot 8.02198 12.8806
ltoes -18.4695
703
root 7.76975 15.3462 21.1752 94.8103 -434.422 -367.337
lowerback 26.0781 5.42938 -4.60088
upperback 6.59745 5.86485 6.60858
thorax -8.25359 2.69655 8.17159
lowerneck -39.6002 4.22865 1.60572
upperneck -4.03257 4.33631 -6.78133
head 4.42235 1.05884 -2.02138
rclavicle 7.95139e-014 3.71727e-014
rhumerus 73.5248 -0.65529 -38.1325
rradius 26.0307
rwrist 7.86355
rhand -44.771 -28.1691
rfingers 7.12502
rthumb -17.5633 -57.3958
lclavicle 7.95139e-014 3.71727e-014
lhumerus 73.1469 -3.17638 53.1311
lradius 26.0912
lwrist 21.517
lhand -52.9743 -32.6266
lfingers 7.12502
lthumb -25.4412 -4.30454
rfemur -101.026 -7.39829 -26.2575
rtibia 23.0847
rfoot -10.7964 -42.2555
rtoes 11.135
lfemur -88.9499 8.27047 -7.75133
ltibia -1.86858e-014
lfoot 7.9849 12.8768
ltoes -18.4411
